<svg width="58" height="56" viewBox="0 0 58 56" fill="none" xmlns="http://www.w3.org/2000/svg">
<rect x="0.912598" width="56.144" height="56" rx="8" fill="#3F50E7"/>
<path d="M28.9846 22.8752C28.3098 22.8733 27.6413 23.0045 27.0176 23.2612C26.3938 23.5179 25.8271 23.8951 25.3501 24.3711C24.873 24.8471 24.495 25.4125 24.2378 26.0347C23.9806 26.6569 23.8493 27.3238 23.8514 27.9968C23.8495 28.6696 23.981 29.3362 24.2383 29.9581C24.4956 30.5801 24.8737 31.1452 25.3507 31.6209C25.8278 32.0965 26.3944 32.4735 27.0181 32.7299C27.6417 32.9864 28.31 33.1173 28.9846 33.1152C29.659 33.1171 30.3272 32.986 30.9506 32.7294C31.5741 32.4729 32.1405 32.0959 32.6174 31.6203C33.0943 31.1446 33.4722 30.5796 33.7294 29.9578C33.9866 29.3359 34.1181 28.6695 34.1162 27.9968C34.1185 27.3238 33.9874 26.6571 33.7303 26.0348C33.4733 25.4126 33.0955 24.8472 32.6185 24.3712C32.1416 23.8952 31.575 23.518 30.9514 23.2612C30.3277 23.0045 29.6593 22.8733 28.9846 22.8752ZM28.9846 31.2752C28.1124 31.2752 27.276 30.9296 26.6593 30.3145C26.0426 29.6994 25.6962 28.8651 25.6962 27.9952C25.6962 27.1253 26.0426 26.291 26.6593 25.6759C27.276 25.0608 28.1124 24.7152 28.9846 24.7152C29.8567 24.7152 30.6932 25.0608 31.3099 25.6759C31.9266 26.291 32.273 27.1253 32.273 27.9952C32.273 28.8651 31.9266 29.6994 31.3099 30.3145C30.6932 30.9296 29.8567 31.2752 28.9846 31.2752ZM37.0052 20C36.5047 19.5008 35.5887 19.6032 34.9631 20.2272C34.3375 20.8528 34.2365 21.7616 34.7369 22.2624C35.2374 22.7632 36.1518 22.6624 36.779 22.0368C37.4046 21.4128 37.5056 20.4992 37.0052 20ZM21.1918 33.9664C20.5646 34.5904 20.4635 35.5008 20.964 36C21.4645 36.4992 22.3789 36.4 23.0061 35.7744C23.6333 35.1488 23.7343 34.2368 23.2338 33.7376C22.7334 33.2384 21.8174 33.3408 21.1918 33.9664ZM20.964 20C20.4635 20.4992 20.5646 21.4128 21.1902 22.0368C21.8174 22.6624 22.7318 22.7616 23.2322 22.2624C23.7327 21.7632 23.6317 20.8496 23.0045 20.2256C22.3805 19.6032 21.4645 19.5008 20.964 20ZM34.9631 35.7712C35.5887 36.3968 36.5031 36.4992 37.0052 36C37.5072 35.5008 37.4046 34.5872 36.7774 33.9616C36.1502 33.336 35.2374 33.2368 34.7353 33.736C34.2333 34.2352 34.3375 35.1472 34.9631 35.7712ZM28.9846 19.9968C29.692 19.9968 30.2679 19.2816 30.2679 18.3968C30.2663 17.512 29.692 16.8 28.9846 16.8C28.2756 16.8 27.6997 17.512 27.6997 18.3968C27.6997 19.2816 28.274 19.9968 28.9846 19.9968ZM28.9846 39.2C29.692 39.2 30.2679 38.4848 30.2679 37.6C30.2679 36.7152 29.6936 36.0032 28.9862 36.0032C28.2772 36.0032 27.7013 36.7152 27.7013 37.6C27.6997 38.4848 28.274 39.2 28.9846 39.2ZM20.964 28C20.964 27.2944 20.2422 26.72 19.3551 26.72C18.468 26.72 17.7558 27.2944 17.7558 28C17.7558 28.7072 18.468 29.28 19.3551 29.28C20.2422 29.28 20.964 28.7072 20.964 28ZM40.2134 28C40.2134 27.2944 39.4947 26.72 38.6077 26.72C37.7206 26.72 37.0052 27.2944 37.0052 28C37.0052 28.7072 37.7206 29.28 38.6077 29.28C39.4947 29.28 40.2134 28.7072 40.2134 28Z" fill="white"/>
</svg>
