<svg width="57" height="56" viewBox="0 0 57 56" fill="none" xmlns="http://www.w3.org/2000/svg">
<rect x="0.275085" width="56.144" height="56" rx="8" fill="#80D2C4"/>
<path d="M28.3471 22.8752C27.6723 22.8733 27.0038 23.0045 26.3801 23.2612C25.7563 23.5179 25.1896 23.8951 24.7126 24.3711C24.2355 24.8471 23.8575 25.4125 23.6003 26.0347C23.3431 26.6569 23.2118 27.3238 23.2139 27.9968C23.212 28.6696 23.3435 29.3362 23.6008 29.9581C23.8581 30.5801 24.2362 31.1452 24.7132 31.6209C25.1903 32.0965 25.7569 32.4735 26.3806 32.7299C27.0042 32.9864 27.6725 33.1173 28.3471 33.1152C29.0215 33.1171 29.6896 32.986 30.3131 32.7294C30.9365 32.4729 31.503 32.0959 31.9799 31.6203C32.4568 31.1446 32.8347 30.5796 33.0919 29.9578C33.3491 29.3359 33.4805 28.6695 33.4786 27.9968C33.481 27.3238 33.3498 26.6571 33.0928 26.0348C32.8358 25.4126 32.4579 24.8472 31.981 24.3712C31.5041 23.8952 30.9375 23.518 30.3138 23.2612C29.6902 23.0045 29.0218 22.8733 28.3471 22.8752ZM28.3471 31.2752C27.4749 31.2752 26.6385 30.9296 26.0218 30.3145C25.4051 29.6994 25.0586 28.8651 25.0586 27.9952C25.0586 27.1253 25.4051 26.291 26.0218 25.6759C26.6385 25.0608 27.4749 24.7152 28.3471 24.7152C29.2192 24.7152 30.0556 25.0608 30.6723 25.6759C31.289 26.291 31.6355 27.1253 31.6355 27.9952C31.6355 28.8651 31.289 29.6994 30.6723 30.3145C30.0556 30.9296 29.2192 31.2752 28.3471 31.2752ZM36.3676 20C35.8671 19.5008 34.9512 19.6032 34.3256 20.2272C33.7 20.8528 33.5989 21.7616 34.0994 22.2624C34.5999 22.7632 35.5142 22.6624 36.1415 22.0368C36.7671 21.4128 36.8681 20.4992 36.3676 20ZM20.5543 33.9664C19.9271 34.5904 19.826 35.5008 20.3265 36C20.827 36.4992 21.7413 36.4 22.3685 35.7744C22.9957 35.1488 23.0968 34.2368 22.5963 33.7376C22.0958 33.2384 21.1799 33.3408 20.5543 33.9664ZM20.3265 20C19.826 20.4992 19.9271 21.4128 20.5527 22.0368C21.1799 22.6624 22.0942 22.7616 22.5947 22.2624C23.0952 21.7632 22.9941 20.8496 22.3669 20.2256C21.7429 19.6032 20.827 19.5008 20.3265 20ZM34.3256 35.7712C34.9512 36.3968 35.8655 36.4992 36.3676 36C36.8697 35.5008 36.7671 34.5872 36.1398 33.9616C35.5126 33.336 34.5999 33.2368 34.0978 33.736C33.5957 34.2352 33.7 35.1472 34.3256 35.7712ZM28.3471 19.9968C29.0545 19.9968 29.6304 19.2816 29.6304 18.3968C29.6288 17.512 29.0545 16.8 28.3471 16.8C27.638 16.8 27.0622 17.512 27.0622 18.3968C27.0622 19.2816 27.6364 19.9968 28.3471 19.9968ZM28.3471 39.2C29.0545 39.2 29.6304 38.4848 29.6304 37.6C29.6304 36.7152 29.0561 36.0032 28.3487 36.0032C27.6397 36.0032 27.0638 36.7152 27.0638 37.6C27.0622 38.4848 27.6364 39.2 28.3471 39.2ZM20.3265 28C20.3265 27.2944 19.6046 26.72 18.7176 26.72C17.8305 26.72 17.1183 27.2944 17.1183 28C17.1183 28.7072 17.8305 29.28 18.7176 29.28C19.6046 29.28 20.3265 28.7072 20.3265 28ZM39.5759 28C39.5759 27.2944 38.8572 26.72 37.9701 26.72C37.0831 26.72 36.3676 27.2944 36.3676 28C36.3676 28.7072 37.0831 29.28 37.9701 29.28C38.8572 29.28 39.5759 28.7072 39.5759 28Z" fill="white"/>
</svg>
