<svg width="57" height="56" viewBox="0 0 57 56" fill="none" xmlns="http://www.w3.org/2000/svg">
<rect x="0.550171" width="56.144" height="56" rx="8" fill="#95CB7C"/>
<path d="M28.6222 22.8752C27.9474 22.8733 27.2789 23.0045 26.6552 23.2612C26.0314 23.5179 25.4647 23.8951 24.9877 24.3711C24.5106 24.8471 24.1326 25.4125 23.8754 26.0347C23.6182 26.6569 23.4869 27.3238 23.489 27.9968C23.4871 28.6696 23.6186 29.3362 23.8759 29.9581C24.1332 30.5801 24.5113 31.1452 24.9883 31.6209C25.4654 32.0965 26.032 32.4735 26.6557 32.7299C27.2793 32.9864 27.9476 33.1173 28.6222 33.1152C29.2966 33.1171 29.9647 32.986 30.5882 32.7294C31.2116 32.4729 31.7781 32.0959 32.255 31.6203C32.7319 31.1446 33.1098 30.5796 33.367 29.9578C33.6242 29.3359 33.7556 28.6695 33.7537 27.9968C33.7561 27.3238 33.6249 26.6571 33.3679 26.0348C33.1109 25.4126 32.733 24.8472 32.2561 24.3712C31.7792 23.8952 31.2126 23.518 30.5889 23.2612C29.9653 23.0045 29.2969 22.8733 28.6222 22.8752ZM28.6222 31.2752C27.75 31.2752 26.9136 30.9296 26.2969 30.3145C25.6802 29.6994 25.3337 28.8651 25.3337 27.9952C25.3337 27.1253 25.6802 26.291 26.2969 25.6759C26.9136 25.0608 27.75 24.7152 28.6222 24.7152C29.4943 24.7152 30.3307 25.0608 30.9474 25.6759C31.5641 26.291 31.9106 27.1253 31.9106 27.9952C31.9106 28.8651 31.5641 29.6994 30.9474 30.3145C30.3307 30.9296 29.4943 31.2752 28.6222 31.2752ZM36.6427 20C36.1422 19.5008 35.2263 19.6032 34.6007 20.2272C33.9751 20.8528 33.874 21.7616 34.3745 22.2624C34.875 22.7632 35.7893 22.6624 36.4165 22.0368C37.0422 21.4128 37.1432 20.4992 36.6427 20ZM20.8294 33.9664C20.2022 34.5904 20.1011 35.5008 20.6016 36C21.1021 36.4992 22.0164 36.4 22.6436 35.7744C23.2708 35.1488 23.3719 34.2368 22.8714 33.7376C22.3709 33.2384 21.455 33.3408 20.8294 33.9664ZM20.6016 20C20.1011 20.4992 20.2022 21.4128 20.8278 22.0368C21.455 22.6624 22.3693 22.7616 22.8698 22.2624C23.3703 21.7632 23.2692 20.8496 22.642 20.2256C22.018 19.6032 21.1021 19.5008 20.6016 20ZM34.6007 35.7712C35.2263 36.3968 36.1406 36.4992 36.6427 36C37.1448 35.5008 37.0422 34.5872 36.4149 33.9616C35.7877 33.336 34.875 33.2368 34.3729 33.736C33.8708 34.2352 33.9751 35.1472 34.6007 35.7712ZM28.6222 19.9968C29.3296 19.9968 29.9055 19.2816 29.9055 18.3968C29.9039 17.512 29.3296 16.8 28.6222 16.8C27.9131 16.8 27.3373 17.512 27.3373 18.3968C27.3373 19.2816 27.9115 19.9968 28.6222 19.9968ZM28.6222 39.2C29.3296 39.2 29.9055 38.4848 29.9055 37.6C29.9055 36.7152 29.3312 36.0032 28.6238 36.0032C27.9148 36.0032 27.3389 36.7152 27.3389 37.6C27.3373 38.4848 27.9115 39.2 28.6222 39.2ZM20.6016 28C20.6016 27.2944 19.8797 26.72 18.9927 26.72C18.1056 26.72 17.3934 27.2944 17.3934 28C17.3934 28.7072 18.1056 29.28 18.9927 29.28C19.8797 29.28 20.6016 28.7072 20.6016 28ZM39.851 28C39.851 27.2944 39.1323 26.72 38.2452 26.72C37.3582 26.72 36.6427 27.2944 36.6427 28C36.6427 28.7072 37.3582 29.28 38.2452 29.28C39.1323 29.28 39.851 28.7072 39.851 28Z" fill="white"/>
</svg>
