<svg width="57" height="56" viewBox="0 0 57 56" fill="none" xmlns="http://www.w3.org/2000/svg">
<rect x="0.637543" width="56.144" height="56" rx="8" fill="#FF537C"/>
<path d="M28.7095 22.8752C28.0348 22.8733 27.3663 23.0045 26.7425 23.2612C26.1188 23.5179 25.5521 23.8951 25.075 24.3711C24.598 24.8471 24.22 25.4125 23.9628 26.0347C23.7056 26.6569 23.5743 27.3238 23.5764 27.9968C23.5745 28.6696 23.706 29.3362 23.9633 29.9581C24.2206 30.5801 24.5986 31.1452 25.0757 31.6209C25.5527 32.0965 26.1194 32.4735 26.743 32.7299C27.3667 32.9864 28.035 33.1173 28.7095 33.1152C29.384 33.1171 30.0521 32.986 30.6755 32.7294C31.299 32.4729 31.8655 32.0959 32.3423 31.6203C32.8192 31.1446 33.1971 30.5796 33.4544 29.9578C33.7116 29.3359 33.843 28.6695 33.8411 27.9968C33.8434 27.3238 33.7123 26.6571 33.4553 26.0348C33.1983 25.4126 32.8204 24.8472 32.3435 24.3712C31.8666 23.8952 31.3 23.518 30.6763 23.2612C30.0526 23.0045 29.3842 22.8733 28.7095 22.8752ZM28.7095 31.2752C27.8374 31.2752 27.001 30.9296 26.3843 30.3145C25.7676 29.6994 25.4211 28.8651 25.4211 27.9952C25.4211 27.1253 25.7676 26.291 26.3843 25.6759C27.001 25.0608 27.8374 24.7152 28.7095 24.7152C29.5817 24.7152 30.4181 25.0608 31.0348 25.6759C31.6515 26.291 31.998 27.1253 31.998 27.9952C31.998 28.8651 31.6515 29.6994 31.0348 30.3145C30.4181 30.9296 29.5817 31.2752 28.7095 31.2752ZM36.7301 20C36.2296 19.5008 35.3137 19.6032 34.6881 20.2272C34.0625 20.8528 33.9614 21.7616 34.4619 22.2624C34.9624 22.7632 35.8767 22.6624 36.5039 22.0368C37.1295 21.4128 37.2306 20.4992 36.7301 20ZM20.9168 33.9664C20.2895 34.5904 20.1885 35.5008 20.689 36C21.1895 36.4992 22.1038 36.4 22.731 35.7744C23.3582 35.1488 23.4593 34.2368 22.9588 33.7376C22.4583 33.2384 21.5424 33.3408 20.9168 33.9664ZM20.689 20C20.1885 20.4992 20.2895 21.4128 20.9151 22.0368C21.5424 22.6624 22.4567 22.7616 22.9572 22.2624C23.4577 21.7632 23.3566 20.8496 22.7294 20.2256C22.1054 19.6032 21.1895 19.5008 20.689 20ZM34.6881 35.7712C35.3137 36.3968 36.228 36.4992 36.7301 36C37.2322 35.5008 37.1295 34.5872 36.5023 33.9616C35.8751 33.336 34.9624 33.2368 34.4603 33.736C33.9582 34.2352 34.0625 35.1472 34.6881 35.7712ZM28.7095 19.9968C29.417 19.9968 29.9928 19.2816 29.9928 18.3968C29.9912 17.512 29.417 16.8 28.7095 16.8C28.0005 16.8 27.4246 17.512 27.4246 18.3968C27.4246 19.2816 27.9989 19.9968 28.7095 19.9968ZM28.7095 39.2C29.417 39.2 29.9928 38.4848 29.9928 37.6C29.9928 36.7152 29.4186 36.0032 28.7111 36.0032C28.0021 36.0032 27.4262 36.7152 27.4262 37.6C27.4246 38.4848 27.9989 39.2 28.7095 39.2ZM20.689 28C20.689 27.2944 19.9671 26.72 19.08 26.72C18.193 26.72 17.4807 27.2944 17.4807 28C17.4807 28.7072 18.193 29.28 19.08 29.28C19.9671 29.28 20.689 28.7072 20.689 28ZM39.9383 28C39.9383 27.2944 39.2197 26.72 38.3326 26.72C37.4455 26.72 36.7301 27.2944 36.7301 28C36.7301 28.7072 37.4455 29.28 38.3326 29.28C39.2197 29.28 39.9383 28.7072 39.9383 28Z" fill="white"/>
</svg>
