<svg width="57" height="56" viewBox="0 0 57 56" fill="none" xmlns="http://www.w3.org/2000/svg">
<rect width="56.144" height="56" rx="8" fill="#FF6853"/>
<path d="M28.0719 22.8752C27.3972 22.8733 26.7287 23.0045 26.1049 23.2612C25.4812 23.5179 24.9145 23.8951 24.4374 24.3711C23.9604 24.8471 23.5824 25.4125 23.3252 26.0347C23.068 26.6569 22.9367 27.3238 22.9388 27.9968C22.9369 28.6696 23.0683 29.3362 23.3257 29.9581C23.583 30.5801 23.961 31.1452 24.4381 31.6209C24.9151 32.0965 25.4818 32.4735 26.1054 32.7299C26.7291 32.9864 27.3974 33.1173 28.0719 33.1152C28.7464 33.1171 29.4145 32.986 30.0379 32.7294C30.6614 32.4729 31.2279 32.0959 31.7047 31.6203C32.1816 31.1446 32.5595 30.5796 32.8168 29.9578C33.074 29.3359 33.2054 28.6695 33.2035 27.9968C33.2058 27.3238 33.0747 26.6571 32.8177 26.0348C32.5607 25.4126 32.1828 24.8472 31.7059 24.3712C31.2289 23.8952 30.6624 23.518 30.0387 23.2612C29.415 23.0045 28.7466 22.8733 28.0719 22.8752ZM28.0719 31.2752C27.1998 31.2752 26.3634 30.9296 25.7467 30.3145C25.13 29.6994 24.7835 28.8651 24.7835 27.9952C24.7835 27.1253 25.13 26.291 25.7467 25.6759C26.3634 25.0608 27.1998 24.7152 28.0719 24.7152C28.9441 24.7152 29.7805 25.0608 30.3972 25.6759C31.0139 26.291 31.3604 27.1253 31.3604 27.9952C31.3604 28.8651 31.0139 29.6994 30.3972 30.3145C29.7805 30.9296 28.9441 31.2752 28.0719 31.2752ZM36.0925 20C35.592 19.5008 34.6761 19.6032 34.0505 20.2272C33.4249 20.8528 33.3238 21.7616 33.8243 22.2624C34.3248 22.7632 35.2391 22.6624 35.8663 22.0368C36.4919 21.4128 36.593 20.4992 36.0925 20ZM20.2792 33.9664C19.6519 34.5904 19.5509 35.5008 20.0514 36C20.5518 36.4992 21.4662 36.4 22.0934 35.7744C22.7206 35.1488 22.8217 34.2368 22.3212 33.7376C21.8207 33.2384 20.9048 33.3408 20.2792 33.9664ZM20.0514 20C19.5509 20.4992 19.6519 21.4128 20.2775 22.0368C20.9048 22.6624 21.8191 22.7616 22.3196 22.2624C22.8201 21.7632 22.719 20.8496 22.0918 20.2256C21.4678 19.6032 20.5518 19.5008 20.0514 20ZM34.0505 35.7712C34.6761 36.3968 35.5904 36.4992 36.0925 36C36.5946 35.5008 36.4919 34.5872 35.8647 33.9616C35.2375 33.336 34.3248 33.2368 33.8227 33.736C33.3206 34.2352 33.4249 35.1472 34.0505 35.7712ZM28.0719 19.9968C28.7793 19.9968 29.3552 19.2816 29.3552 18.3968C29.3536 17.512 28.7793 16.8 28.0719 16.8C27.3629 16.8 26.787 17.512 26.787 18.3968C26.787 19.2816 27.3613 19.9968 28.0719 19.9968ZM28.0719 39.2C28.7793 39.2 29.3552 38.4848 29.3552 37.6C29.3552 36.7152 28.781 36.0032 28.0735 36.0032C27.3645 36.0032 26.7886 36.7152 26.7886 37.6C26.787 38.4848 27.3613 39.2 28.0719 39.2ZM20.0514 28C20.0514 27.2944 19.3295 26.72 18.4424 26.72C17.5554 26.72 16.8431 27.2944 16.8431 28C16.8431 28.7072 17.5554 29.28 18.4424 29.28C19.3295 29.28 20.0514 28.7072 20.0514 28ZM39.3007 28C39.3007 27.2944 38.5821 26.72 37.695 26.72C36.8079 26.72 36.0925 27.2944 36.0925 28C36.0925 28.7072 36.8079 29.28 37.695 29.28C38.5821 29.28 39.3007 28.7072 39.3007 28Z" fill="white"/>
</svg>
